# Blender 4.4.3
# www.blender.org
mtllib ciemna_rama.mtl
g Plane_Mesh
v 11.895000 -4.726711 -24.062254
v 11.895000 -4.726711 -18.057451
v 5.890197 -4.726711 -18.057451
v 5.890199 -4.726711 -24.062254
v -0.114606 -4.726711 -24.062254
v -0.114606 -4.726711 -18.057451
v -6.119410 -4.726711 -18.057451
v -6.119408 -4.726711 -24.062254
v -12.124207 -4.726711 -24.062254
v -12.124207 -4.726711 -18.057451
v -18.129007 -4.726711 -18.057451
v -18.129004 -4.726711 -24.062254
v 23.904606 -4.726711 -24.062254
v 23.904606 -4.726711 -18.057451
v 17.899803 -4.726711 -18.057451
v 17.899805 -4.726711 -24.062254
v -18.129007 -4.726711 5.961757
v -18.129007 -4.726711 11.966558
v -24.133814 -4.726711 11.966558
v -24.133810 -4.726711 5.961757
v -6.119402 -4.726711 5.961757
v -6.119402 -4.726711 11.966558
v -12.124207 -4.726711 11.966558
v -12.124203 -4.726711 5.961757
v 17.899803 -4.726711 5.961757
v 17.899803 -4.726711 11.966558
v 11.895000 -4.726711 11.966558
v 11.895002 -4.726711 5.961757
v 17.899803 -4.726711 -18.057444
v 17.899803 -4.726711 -12.052641
v 11.895000 -4.726711 -12.052641
v 11.895002 -4.726711 -18.057444
v -18.129007 -4.726711 -18.057444
v -18.129007 -4.726711 -12.052641
v -24.133814 -4.726711 -12.052641
v -24.133810 -4.726711 -18.057444
v -6.119402 -4.726711 -18.057444
v -6.119402 -4.726711 -12.052641
v -12.124207 -4.726711 -12.052641
v -12.124203 -4.726711 -18.057444
v 5.890196 -4.726711 -18.057444
v 5.890196 -4.726711 -12.052641
v -0.114606 -4.726711 -12.052641
v -0.114604 -4.726711 -18.057444
v 11.895000 -4.726711 -12.052645
v 11.895000 -4.726711 -6.047844
v 5.890197 -4.726711 -6.047844
v 5.890199 -4.726711 -12.052645
v -0.114606 -4.726711 -12.052645
v -0.114606 -4.726711 -6.047844
v -6.119410 -4.726711 -6.047844
v -6.119408 -4.726711 -12.052645
v -12.124207 -4.726711 -12.052645
v -12.124207 -4.726711 -6.047844
v -18.129007 -4.726711 -6.047844
v -18.129004 -4.726711 -12.052645
v 23.904606 -4.726711 -12.052645
v 23.904606 -4.726711 -6.047844
v 17.899803 -4.726711 -6.047844
v 17.899805 -4.726711 -12.052645
v 17.899803 -4.726711 -6.047844
v 17.899803 -4.726711 -0.043039
v 11.895000 -4.726711 -0.043043
v 11.895002 -4.726711 -6.047844
v -18.129007 -4.726711 -6.047844
v -18.129007 -4.726711 -0.043039
v -24.133814 -4.726711 -0.043043
v -24.133810 -4.726711 -6.047844
v -6.119402 -4.726710 -6.047840
v -6.119402 -4.726711 -0.043039
v -12.124207 -4.726711 -0.043043
v -12.124203 -4.726710 -6.047844
v 5.890196 -4.726711 -6.047844
v 5.890196 -4.726711 -0.043039
v -0.114606 -4.726711 -0.043039
v -0.114604 -4.726711 -6.047844
v 11.895000 -4.726711 -0.043039
v 11.895000 -4.726711 5.961763
v 5.890197 -4.726711 5.961763
v 5.890199 -4.726711 -0.043039
v -0.114606 -4.726711 -0.043039
v -0.114606 -4.726711 5.961763
v -6.119410 -4.726711 5.961763
v -6.119408 -4.726711 -0.043039
v -12.124207 -4.726711 -0.043039
v -12.124207 -4.726711 5.961763
v -18.129007 -4.726711 5.961763
v -18.129004 -4.726711 -0.043039
v 23.904606 -4.726711 -0.043039
v 23.904606 -4.726711 5.961763
v 17.899803 -4.726711 5.961763
v 17.899805 -4.726711 -0.043039
v 23.904606 -4.726711 11.966560
v 23.904606 -4.726711 17.971363
v 17.899803 -4.726711 17.971361
v 17.899805 -4.726711 11.966559
v -12.124207 -4.726711 11.966560
v -12.124207 -4.726711 17.971363
v -18.129007 -4.726711 17.971361
v -18.129004 -4.726711 11.966559
v -0.114606 -4.726711 11.966560
v -0.114606 -4.726711 17.971363
v -6.119410 -4.726711 17.971361
v -6.119408 -4.726711 11.966559
v -18.129007 -4.726711 17.971363
v -18.129007 -4.726711 23.976166
v -24.133814 -4.726711 23.976166
v -24.133810 -4.726711 17.971363
v -6.119402 -4.726711 17.971363
v -6.119402 -4.726711 23.976166
v -12.124207 -4.726711 23.976166
v -12.124203 -4.726711 17.971363
v 5.890196 -4.726711 5.961757
v 5.890196 -4.726711 11.966558
v -0.114606 -4.726711 11.966558
v -0.114604 -4.726711 5.961757
v 11.895000 -4.726711 11.966560
v 11.895000 -4.726711 17.971363
v 5.890197 -4.726711 17.971361
v 5.890199 -4.726711 11.966559
v 5.890196 -4.726711 17.971363
v 5.890196 -4.726711 23.976166
v -0.114606 -4.726711 23.976166
v -0.114604 -4.726711 17.971363
v 17.899803 -4.726712 17.971363
v 17.899803 -4.726712 23.976166
v 11.895000 -4.726712 23.976166
v 11.895002 -4.726712 17.971363
vn -0.0000 1.0000 -0.0000
vt 1.447094 -0.078556
vt 1.067095 -0.458556
vt 1.447094 -0.458556
vt 1.447094 0.681444
vt 1.067095 0.301444
vt 1.447094 0.301444
vt 1.447094 1.441444
vt 1.067095 1.061443
vt 1.447094 1.061443
vt 1.067095 0.681443
vt 1.447094 0.681444
vt 1.067095 -0.458556
vt 1.447094 -0.458556
vt 1.067095 0.681444
vt 1.067095 1.061444
vt 1.447094 1.061444
vt 1.067094 1.441444
vt 0.687094 1.061444
vt 1.067094 1.061444
vt 1.067094 -0.078556
vt 0.687094 -0.458556
vt 1.067094 -0.458556
vt 1.067094 1.061443
vt 0.687094 0.681444
vt 1.067094 0.681444
vt 1.067094 0.301444
vt 0.687094 -0.078556
vt 1.067094 -0.078556
vt 0.687094 -0.078556
vt 0.307095 -0.458556
vt 0.687094 -0.458556
vt 0.307095 0.301444
vt 0.687094 0.301444
vt 0.687094 1.441443
vt 0.307094 1.061443
vt 0.687094 1.061443
vt 0.307095 0.681443
vt 0.687094 0.681443
vt 0.307094 1.061444
vt -0.072906 1.441444
vt -0.072906 1.061443
vt 0.307095 -0.078556
vt -0.072906 -0.458556
vt 0.307095 -0.458556
vt -0.072906 0.681444
vt 0.307094 0.681444
vt 0.307095 0.301444
vt -0.072906 -0.078556
vt 0.307095 -0.078556
vt -0.072906 -0.078557
vt -0.452906 -0.458557
vt -0.072906 -0.458556
vt -0.452906 0.301444
vt -0.072906 0.301444
vt -0.072906 1.441443
vt -0.452906 1.061443
vt -0.072906 1.061443
vt -0.452906 0.681443
vt -0.072906 0.681443
vt 1.067094 0.681443
vt 0.687095 1.061444
vt 0.687095 0.681443
vt 1.067095 1.441444
vt 0.687095 1.061443
vt 1.067094 1.061443
vt 0.687095 0.301444
vt 1.067094 0.301444
vt 0.687095 -0.078556
vt 0.307095 0.681444
vt 1.447094 0.301444
vt 1.067095 -0.078556
vt 1.447094 -0.078556
vt 1.067094 -0.458556
vt 0.687095 -0.078556
vt 0.687095 -0.458556
vt 0.687095 0.301444
vt 0.687094 1.441443
vt 1.067095 1.441444
vt 1.067095 -0.078556
vt 1.067095 1.441444
vt 0.687094 1.441444
vt 0.307094 1.441444
vt 0.307094 1.441443
vt -0.452906 -0.078556
vt -0.452906 0.681444
vt -0.452906 1.441444
vt -0.452906 1.061443
vt 0.687094 1.441444
vt 0.687095 0.681444
vt 0.307094 1.441444
s 0
g off
g Plane_Mrke-brikker_lodr.002
usemtl Mrke-brikker_lodr.002
f 4/1/1 2/2/1 1/3/1
f 8/4/1 6/5/1 5/6/1
f 12/7/1 10/8/1 9/9/1
f 16/9/1 14/10/1 13/11/1
f 20/1/1 18/12/1 17/13/1
f 24/9/1 22/14/1 21/4/1
f 28/7/1 26/15/1 25/16/1
f 32/17/1 30/18/1 29/19/1
f 36/20/1 34/21/1 33/22/1
f 40/23/1 38/24/1 37/25/1
f 44/26/1 42/27/1 41/28/1
f 48/29/1 46/30/1 45/31/1
f 52/24/1 50/32/1 49/33/1
f 56/34/1 54/35/1 53/36/1
f 60/36/1 58/37/1 57/38/1
f 61/39/1 63/40/1 62/41/1
f 68/42/1 66/43/1 65/44/1
f 72/35/1 70/45/1 69/46/1
f 76/47/1 74/48/1 73/49/1
f 80/50/1 78/51/1 77/52/1
f 84/45/1 82/53/1 81/54/1
f 88/55/1 86/56/1 85/57/1
f 92/57/1 90/58/1 89/59/1
f 93/60/1 95/61/1 94/62/1
f 100/63/1 98/64/1 97/65/1
f 104/14/1 102/66/1 101/67/1
f 108/68/1 106/44/1 105/21/1
f 112/64/1 110/69/1 109/24/1
f 116/70/1 114/71/1 113/72/1
f 117/73/1 119/74/1 118/75/1
f 124/76/1 122/49/1 121/27/1
f 128/77/1 126/39/1 125/18/1
f 4/1/1 3/71/1 2/2/1
f 8/4/1 7/14/1 6/5/1
f 12/7/1 11/78/1 10/8/1
f 16/9/1 15/15/1 14/10/1
f 20/1/1 19/79/1 18/12/1
f 24/9/1 23/8/1 22/14/1
f 28/7/1 27/80/1 26/15/1
f 32/17/1 31/81/1 30/18/1
f 36/20/1 35/29/1 34/21/1
f 40/23/1 39/36/1 38/24/1
f 44/26/1 43/33/1 42/27/1
f 48/29/1 47/49/1 46/30/1
f 52/24/1 51/69/1 50/32/1
f 56/34/1 55/82/1 54/35/1
f 60/36/1 59/39/1 58/37/1
f 61/39/1 64/83/1 63/40/1
f 68/42/1 67/50/1 66/43/1
f 72/35/1 71/57/1 70/45/1
f 76/47/1 75/54/1 74/48/1
f 80/50/1 79/84/1 78/51/1
f 84/45/1 83/85/1 82/53/1
f 88/55/1 87/86/1 86/56/1
f 92/57/1 91/87/1 90/58/1
f 93/60/1 96/8/1 95/61/1
f 100/63/1 99/88/1 98/64/1
f 104/14/1 103/89/1 102/66/1
f 108/68/1 107/42/1 106/44/1
f 112/64/1 111/35/1 110/69/1
f 116/70/1 115/5/1 114/71/1
f 117/73/1 120/79/1 119/74/1
f 124/76/1 123/32/1 122/49/1
f 128/77/1 127/90/1 126/39/1
g Ramme.001_Mesh
v -24.434048 -4.626712 -24.362476
v -30.438858 -4.926952 -30.367287
v 30.209641 -5.827672 -30.367290
v 24.204838 -5.827672 -24.362490
v 30.209641 -4.926952 -30.367290
v 24.204845 -4.626712 24.276417
v 30.209652 -4.926952 30.281219
v -30.438854 -4.926952 30.281219
v -24.434048 -4.626712 24.276417
v 24.204842 -4.626712 -24.362488
v -24.434048 -5.827672 -24.362476
v -30.438858 -5.827672 -30.367287
v -24.434048 -5.827672 24.276417
v -30.438854 -5.827672 30.281219
v 30.209652 -5.827672 30.281219
v 24.204845 -5.827672 24.276417
vn -0.0000 0.9988 0.0499
vn -0.0000 -0.0000 -1.0000
vn -0.0000 -0.0000 1.0000
vn -0.0000 -1.0000 -0.0000
vn -1.0000 -0.0000 -0.0000
vn 1.0000 -0.0000 -0.0000
vn -0.0499 0.9988 -0.0000
vn 0.0499 0.9988 -0.0000
vn -0.0000 0.9988 -0.0499
vt 0.804586 -1.840763
vt 1.063670 0.516898
vt 0.804586 0.257814
vt 0.094684 2.848650
vt 0.146501 0.750073
vt 0.094684 0.750073
vt 0.107638 -2.099845
vt 0.146501 0.516898
vt 0.107638 0.516898
vt 0.804586 0.750073
vt 1.063670 3.107733
vt 1.063670 0.490990
vt 0.982136 2.573856
vt 1.275188 -0.092917
vt 0.982136 -0.385969
vt 0.936642 2.573263
vt 0.980600 -0.386562
vt 0.936642 -0.386561
vt 1.281294 -0.095949
vt 1.339905 2.277772
vt 1.281294 2.277772
vt 1.275188 2.280804
vt 0.001427 2.848649
vt -0.257657 0.490989
vt 0.001427 0.750073
vt 0.107638 3.107733
vt 0.146501 0.490989
vt 0.107638 0.490989
vt 0.094684 -1.840763
vt 0.146501 0.257814
vt 0.094684 0.257814
vt 1.296844 0.257814
vt 1.037761 -2.099846
vt 1.037761 0.516898
vt 1.063669 -2.099845
vt 0.146501 2.848650
vt 0.146501 -2.099846
vt 0.804587 2.848650
vt 0.980600 2.573263
vt 1.339904 -0.095949
vt -0.257656 3.107733
vt 0.146501 3.107733
vt 0.146501 -1.840763
vt 1.296845 -1.840763
s 0
g off
g Ramme.001_Mrke-brikker_lodr.002
usemtl Mrke-brikker_lodr.002
f 137/91/2 135/92/2 134/93/2
f 134/94/3 141/95/3 137/96/3
f 136/97/4 143/98/4 135/99/4
f 141/100/5 143/101/5 142/102/5
f 140/103/5 141/104/5 142/105/5
f 142/106/6 130/107/6 140/108/6
f 137/109/7 139/110/7 129/111/7
f 136/105/8 129/112/8 130/103/8
f 143/103/5 132/104/5 131/105/5
f 131/106/7 135/107/7 143/108/7
f 138/109/6 144/110/6 134/111/6
f 138/104/9 135/103/9 133/105/9
f 138/113/10 130/114/10 129/115/10
f 133/116/3 140/117/3 130/118/3
f 129/119/4 132/120/4 138/121/4
f 132/122/5 140/123/5 131/124/5
f 137/91/2 136/125/2 135/92/2
f 134/94/3 144/126/3 141/95/3
f 136/97/4 142/127/4 143/98/4
f 141/100/5 144/128/5 143/101/5
f 140/103/5 139/112/5 141/104/5
f 142/106/6 136/129/6 130/107/6
f 137/109/7 141/130/7 139/110/7
f 136/105/8 137/104/8 129/112/8
f 143/103/5 144/112/5 132/104/5
f 131/106/7 133/129/7 135/107/7
f 138/109/6 132/130/6 144/110/6
f 138/104/9 134/112/9 135/103/9
f 138/113/10 133/131/10 130/114/10
f 133/116/3 131/132/3 140/117/3
f 129/119/4 139/133/4 132/120/4
f 132/122/5 139/134/5 140/123/5
